<?xml version="1.0" standalone="no"?>
<!DOCTYPE svg PUBLIC "-//W3C//DTD SVG 20010904//EN"
 "http://www.w3.org/TR/2001/REC-SVG-20010904/DTD/svg10.dtd">
<svg version="1.0" xmlns="http://www.w3.org/2000/svg"
 width="644.000000pt" height="646.000000pt" viewBox="0 0 644.000000 646.000000"
 preserveAspectRatio="xMidYMid meet">

<g transform="translate(0.000000,646.000000) scale(0.100000,-0.100000)"
fill="#000000" stroke="none">
<path d="M2976 6409 c-141 -10 -347 -43 -496 -79 -1313 -321 -2267 -1402
-2430 -2753 -16 -132 -21 -443 -9 -601 60 -826 461 -1626 1088 -2168 494 -428
1088 -689 1744 -768 132 -16 443 -21 601 -9 1284 93 2405 976 2799 2204 100
311 145 577 152 903 13 550 -96 1035 -341 1523 -481 962 -1410 1608 -2498
1739 -116 14 -471 20 -610 9z m479 -200 c477 -41 883 -167 1290 -402 491 -283
914 -736 1169 -1252 63 -127 149 -335 142 -342 -2 -2 -128 100 -279 227 -152
126 -280 230 -284 230 -5 0 -86 -146 -182 -325 -95 -179 -176 -325 -180 -325
-4 0 -86 178 -182 395 -96 217 -175 390 -177 383 -1 -7 15 -92 37 -188 21 -96
37 -178 34 -183 -2 -4 -30 -21 -61 -37 l-57 -30 52 2 52 3 21 -88 c11 -49 23
-99 26 -112 4 -18 -1 -27 -30 -45 -20 -12 -36 -25 -36 -30 0 -5 18 -11 40 -15
22 -4 42 -10 45 -15 8 -12 107 -502 102 -506 -3 -4 -458 723 -507 811 -32 57
-872 1256 -877 1251 -2 -2 0 -83 6 -180 l9 -177 -144 -281 c-79 -155 -143
-283 -141 -284 1 -1 67 87 147 195 l145 198 24 -350 23 -351 -21 -17 c-11 -9
-50 -44 -86 -77 l-66 -60 96 -32 c87 -29 95 -34 95 -57 0 -15 9 -186 21 -380
11 -195 19 -359 17 -365 -6 -18 -1029 1070 -1322 1405 -148 169 -270 307 -272
307 -2 0 1 -8 6 -17 6 -10 59 -147 118 -304 l108 -285 -44 -60 c-24 -32 -48
-67 -54 -78 -11 -20 -13 -21 55 22 22 13 42 21 45 17 4 -4 36 -93 72 -199 l65
-193 -62 -94 c-34 -52 -62 -97 -62 -101 -1 -3 27 2 62 13 34 10 63 19 65 19 2
0 1 -13 -2 -30 -3 -16 -8 -43 -11 -59 l-6 -28 48 4 48 5 53 -177 c29 -98 51
-180 48 -182 -2 -2 -190 167 -418 377 -324 299 -461 433 -638 625 -135 147
-226 239 -228 230 -2 -8 15 -157 38 -331 l42 -316 -47 -48 -48 -48 42 -21 c22
-12 41 -25 41 -29 -1 -4 -52 -52 -115 -107 -62 -55 -112 -101 -111 -103 2 -1
61 20 131 48 71 27 130 48 132 46 3 -2 -10 -32 -27 -66 -31 -62 -32 -63 -8
-56 69 19 62 28 80 -96 9 -62 15 -114 13 -117 -4 -3 -1294 318 -1303 325 -7 5
42 224 78 354 124 439 343 830 668 1195 150 169 414 387 631 523 533 332 1197
494 1806 441z m-643 -3349 c65 -19 115 -72 132 -143 7 -29 -1 -35 -66 -51 -25
-6 -28 -3 -38 34 -14 51 -45 80 -86 80 -48 0 -62 -8 -74 -45 -17 -53 5 -91
105 -176 119 -100 143 -132 157 -206 10 -57 9 -64 -13 -109 -33 -66 -74 -89
-159 -88 -78 1 -121 20 -155 72 -30 46 -49 123 -33 133 7 4 27 10 46 14 38 7
52 -4 52 -41 0 -36 43 -89 74 -92 71 -9 104 32 85 103 -10 37 -34 61 -149 157
-79 66 -107 105 -116 165 -20 138 96 232 238 193z m291 -187 c16 -104 31 -212
34 -240 3 -29 9 -53 13 -53 4 0 10 28 13 63 4 34 19 142 34 240 l27 177 51 0
51 0 18 -122 c10 -68 26 -179 36 -248 11 -78 19 -116 23 -100 3 14 20 125 38
248 l32 222 49 0 c32 0 48 -4 48 -13 0 -12 -104 -604 -116 -659 -5 -26 -9 -28
-55 -28 -42 0 -49 3 -53 23 -9 37 -44 276 -57 380 -6 54 -13 96 -14 95 -2 -2
-8 -41 -14 -88 -14 -101 -50 -344 -57 -382 -5 -26 -9 -28 -55 -28 -27 0 -49 1
-49 3 -1 1 -29 158 -64 350 l-62 347 51 0 51 0 27 -187z m805 150 l-3 -38 -87
-3 -88 -3 0 -109 0 -110 66 0 65 0 -3 -37 -3 -38 -62 -3 -63 -3 0 -119 0 -119
88 -3 87 -3 3 -37 3 -38 -140 0 -141 0 0 350 0 350 141 0 140 0 -3 -37z
m-2845 -1242 c22 -5 66 -26 99 -47 34 -20 86 -45 117 -54 l56 -18 -45 -12
c-66 -18 -124 -6 -202 41 -71 43 -130 68 -162 69 -27 0 -13 11 26 20 45 11 67
11 111 1z m747 -1 c19 -5 61 -26 94 -46 32 -21 84 -45 115 -54 l56 -18 -45
-12 c-66 -18 -124 -6 -202 41 -70 42 -128 67 -163 70 -26 2 51 27 85 28 14 1
41 -3 60 -9z m823 -42 c73 -44 128 -66 167 -68 21 -1 19 -4 -15 -16 -61 -24
-134 -11 -221 37 -40 22 -97 48 -126 58 l-53 19 35 10 c63 20 138 6 213 -40z
m749 -3 c43 -25 101 -51 130 -59 l51 -13 -48 -13 c-66 -18 -129 -4 -229 54
-43 24 -97 48 -120 52 l-41 7 40 14 c66 21 129 9 217 -42z m740 0 c43 -25 102
-52 131 -59 l52 -13 -40 -12 c-78 -22 -135 -9 -228 49 -34 22 -87 45 -117 52
l-55 12 40 13 c67 21 129 9 217 -42z m648 45 c20 -5 63 -26 95 -46 33 -20 85
-45 115 -54 l55 -18 -45 -12 c-74 -20 -120 -8 -245 64 -32 19 -77 38 -100 42
l-40 7 40 13 c50 16 80 17 125 4z m732 1 c21 -5 71 -29 113 -54 74 -44 75 -45
58 -66 -16 -19 -22 -20 -57 -10 -21 6 -68 27 -104 47 -37 20 -89 44 -117 53
l-50 17 35 10 c44 13 75 14 122 3z m-4523 -113 c134 -75 128 -73 246 -73 110
0 110 0 180 40 103 58 134 69 197 68 44 -1 69 -8 115 -33 123 -69 134 -73 213
-78 92 -5 166 10 218 46 20 14 64 36 97 49 82 33 140 26 231 -29 88 -53 140
-68 233 -68 84 1 125 12 198 56 76 45 114 58 174 58 57 0 70 -5 194 -75 52
-29 71 -34 145 -37 99 -5 144 6 220 50 85 50 120 62 181 62 57 0 70 -5 194
-74 51 -29 71 -34 142 -38 99 -5 161 8 228 51 73 47 113 61 176 61 57 0 72 -6
194 -75 58 -33 64 -34 166 -34 l105 0 117 59 c112 56 120 58 171 52 37 -5 75
-20 118 -45 61 -38 144 -71 174 -71 22 0 -101 -145 -251 -296 -867 -872 -2181
-1125 -3315 -639 -468 200 -903 543 -1212 954 -56 75 -56 76 -35 89 35 20 122
6 186 -30z"/>
<path d="M1369 4623 l-24 -28 28 24 c25 23 32 31 24 31 -2 0 -14 -12 -28 -27z"/>
<path d="M1309 4573 l-24 -28 28 24 c25 23 32 31 24 31 -2 0 -14 -12 -28 -27z"/>
<path d="M1249 4523 l-24 -28 28 24 c25 23 32 31 24 31 -2 0 -14 -12 -28 -27z"/>
<path d="M1184 4468 l-19 -23 23 19 c21 18 27 26 19 26 -2 0 -12 -10 -23 -22z"/>
<path d="M1129 4423 c-13 -16 -12 -17 4 -4 9 7 17 15 17 17 0 8 -8 3 -21 -13z"/>
<path d="M1069 4373 c-13 -16 -12 -17 4 -4 9 7 17 15 17 17 0 8 -8 3 -21 -13z"/>
</g>
</svg>
